HIERARCHY
ROOT Hips
{
	OFFSET 0.000000 0.000000 0.000000
	CHANNELS 6 Xposition Yposition Zposition Xrotation Yrotation Zrotation
	JOINT LeftUpLeg_virtual
	{
		OFFSET 0.000000 0.000000 0.000000
		CHANNELS 3 Xrotation Yrotation Zrotation
		JOINT LeftUpLeg
		{
			OFFSET 15.427100 -6.655098 0.678600
			CHANNELS 3 Xrotation Yrotation Zrotation
			JOINT LeftLeg
			{
				OFFSET 4.081073 -39.591068 13.024000
				CHANNELS 3 Xrotation Yrotation Zrotation
				JOINT LeftFoot
				{
					OFFSET -4.081074 -37.707932 -15.979700
					CHANNELS 3 Xrotation Yrotation Zrotation
					JOINT LeftToeBase
					{
						OFFSET 5.346399 -15.068900 20.645000
						CHANNELS 3 Xrotation Yrotation Zrotation
						JOINT LeftToe_End
						{
							OFFSET 2.754700 0.931300 11.300900
							CHANNELS 3 Xrotation Yrotation Zrotation
							End Site
							{
								OFFSET 0 0 0
							}
						}
					}
				}
			}
		}
	}
	JOINT RightUpLeg_virtual
	{
		OFFSET 0.000000 0.000000 0.000000
		CHANNELS 3 Xrotation Yrotation Zrotation
		JOINT RightUpLeg
		{
			OFFSET -15.569500 -6.655098 0.678600
			CHANNELS 3 Xrotation Yrotation Zrotation
			JOINT RightLeg
			{
				OFFSET -4.081825 -39.591045 13.023800
				CHANNELS 3 Xrotation Yrotation Zrotation
				JOINT RightFoot
				{
					OFFSET 4.081824 -37.707954 -15.979600
					CHANNELS 3 Xrotation Yrotation Zrotation
					JOINT RightToeBase
					{
						OFFSET -5.346400 -15.068900 20.645000
						CHANNELS 3 Xrotation Yrotation Zrotation
						JOINT RightToe_End
						{
							OFFSET -2.754700 0.931300 11.300900
							CHANNELS 3 Xrotation Yrotation Zrotation
							End Site
							{
								OFFSET 0 0 0
							}
						}
					}
				}
			}
		}
	}
	JOINT Spine_virtual
	{
		OFFSET 0.000000 0.000000 0.000000
		CHANNELS 3 Xrotation Yrotation Zrotation
		JOINT Spine
		{
			OFFSET -0.279200 12.230698 -2.892100
			CHANNELS 3 Xrotation Yrotation Zrotation
			JOINT Spine1
			{
				OFFSET -0.232667 10.192268 -1.242267
				CHANNELS 3 Xrotation Yrotation Zrotation
				JOINT Spine1_split
				{
					OFFSET -0.232667 10.192268 -1.242267
					CHANNELS 3 Xrotation Yrotation Zrotation
					JOINT Spine2
					{
						OFFSET -0.232667 10.192268 -1.242267
						CHANNELS 3 Xrotation Yrotation Zrotation
						JOINT Neck_virtual
						{
							OFFSET 0.000000 0.000000 0.000000
							CHANNELS 3 Xrotation Yrotation Zrotation
							JOINT Neck
							{
								OFFSET -0.418800 17.814194 8.416900
								CHANNELS 3 Xrotation Yrotation Zrotation
								JOINT Head
								{
									OFFSET 0.000000 7.031097 3.806800
									CHANNELS 3 Xrotation Yrotation Zrotation
									JOINT HeadTop_End
									{
										OFFSET 0.000000 24.646606 12.978600
										CHANNELS 3 Xrotation Yrotation Zrotation
										End Site
										{
											OFFSET 0 0 0
										}
									}
								}
							}
						}
						JOINT LeftShoulder_virtual
						{
							OFFSET 0.000000 0.000000 0.000000
							CHANNELS 3 Xrotation Yrotation Zrotation
							JOINT LeftShoulder
							{
								OFFSET 8.476499 7.247704 -3.868750
								CHANNELS 3 Xrotation Yrotation Zrotation
								JOINT LeftShoulder_split
								{
									OFFSET 8.476499 7.247704 -3.868750
									CHANNELS 3 Xrotation Yrotation Zrotation
									JOINT LeftArm
									{
										OFFSET 9.308998 -2.777710 0.208600
										CHANNELS 3 Xrotation Yrotation Zrotation
										JOINT LeftForeArm
										{
											OFFSET 29.972298 0.000000 0.000000
											CHANNELS 3 Xrotation Yrotation Zrotation
											JOINT LeftHand
											{
												OFFSET 26.026505 0.000000 0.000000
												CHANNELS 3 Xrotation Yrotation Zrotation
												End Site
												{
													OFFSET 0 0 0
												}
											}
										}
									}
								}
							}
						}
						JOINT RightShoulder_virtual
						{
							OFFSET 0.000000 0.000000 0.000000
							CHANNELS 3 Xrotation Yrotation Zrotation
							JOINT RightShoulder
							{
								OFFSET -7.570500 7.247704 -3.868750
								CHANNELS 3 Xrotation Yrotation Zrotation
								JOINT RightShoulder_split
								{
									OFFSET -7.570500 7.247704 -3.868750
									CHANNELS 3 Xrotation Yrotation Zrotation
									JOINT RightArm
									{
										OFFSET -9.308998 -2.777710 0.208500
										CHANNELS 3 Xrotation Yrotation Zrotation
										JOINT RightForeArm
										{
											OFFSET -29.972300 0.000000 0.000000
											CHANNELS 3 Xrotation Yrotation Zrotation
											JOINT RightHand
											{
												OFFSET -26.026505 0.000000 0.000000
												CHANNELS 3 Xrotation Yrotation Zrotation
												End Site
												{
													OFFSET 0 0 0
												}
											}
										}
									}
								}
							}
						}
					}
				}
			}
		}
	}
}
MOTION
Frames: 4
Frame Time: 0.03333333
0.377904 98.770538 -5.117912 0.000000 0.000000 0.000000 -87.594000 -5.159098 -2.104577 6.935689 23.181264 16.574740 -3.250547 4.907538 3.529137 20.611815 30.077769 -28.716724 -5.480618 -0.326826 0.187045 0.000000 0.000000 0.000000 -90.234032 -1.702915 0.167013 11.194447 -22.195851 -14.808904 0.080092 -1.228675 -5.830133 28.085869 -34.058151 29.377193 -12.573903 1.182016 -0.695434 0.000000 0.000000 0.000000 -88.428069 -6.236428 -3.815058 2.369760 -1.331171 0.870162 -2.629186 -1.195532 0.537309 1.206371 2.527282 -0.277621 0.000000 0.000000 0.000000 -2.416317 -1.678258 0.412888 -11.330649 -2.259351 -1.447770 15.168021 -0.040987 3.195391 0.000000 0.000000 0.000000 -0.489287 -1.604681 0.751585 0.755079 1.305725 -5.609660 -1.247122 0.529653 -2.808322 37.894105 -28.488635 -54.941714 -154.473594 -88.549632 -153.468217 0.000000 0.000000 0.000000 -0.427191 -1.203193 0.223318 0.620539 -2.705280 13.777120 2.662625 4.631336 -0.476630 28.020113 24.471777 47.277063 178.756077 79.165929 -179.898563 0.000000 0.000000 0.000000 
0.174060 98.922791 -4.594151 0.000000 0.000000 0.000000 -87.470462 -4.824405 -1.932419 6.500218 23.332304 16.881105 -3.318892 4.932832 3.404451 20.792503 29.766907 -29.020111 -5.520166 -0.343126 0.220154 0.000000 0.000000 0.000000 -89.699420 -1.444812 0.223338 11.325126 -21.693085 -14.889816 -0.159568 -1.301730 -5.801818 28.580447 -34.136080 29.558641 -12.447866 1.189218 -0.664773 0.000000 0.000000 0.000000 -88.185617 -6.275155 -3.994203 2.091727 -1.445242 0.863278 -2.718523 -1.262992 0.433829 0.997478 2.133981 -0.391496 0.000000 0.000000 0.000000 -2.541005 -1.707151 0.329548 -11.354127 -2.114846 -1.447555 15.343696 -0.189719 2.987130 0.000000 0.000000 0.000000 -0.485061 -1.657795 0.663923 0.791465 0.735926 -5.307964 -0.714734 0.378770 -2.469924 37.672236 -28.742631 -54.989320 -140.164566 -88.687609 -139.065957 0.000000 0.000000 0.000000 -0.485312 -1.234421 0.135144 0.652349 -3.057452 13.749897 2.522363 4.408159 0.417318 26.912506 25.272446 48.498110 -179.753544 79.970396 178.526815 0.000000 0.000000 0.000000 
0.067078 99.105415 -4.230927 0.000000 0.000000 0.000000 -87.205595 -4.850975 -1.997956 6.210636 23.244169 17.194911 -3.315785 5.021634 3.299131 20.778462 29.572841 -28.907840 -5.495414 -0.349870 0.204298 0.000000 0.000000 0.000000 -89.040019 -1.391403 0.167179 11.067241 -21.353589 -14.872313 -0.400801 -1.394363 -5.785388 29.421204 -34.127634 29.969654 -12.622885 1.226110 -0.670528 0.000000 0.000000 0.000000 -87.813857 -6.413977 -4.197176 1.829152 -1.539036 0.924967 -2.850363 -1.341331 0.246677 0.758761 1.781086 -0.433738 0.000000 0.000000 0.000000 -2.598436 -1.772745 0.189947 -11.461493 -2.070524 -1.279136 15.354795 -0.461433 2.931470 0.000000 0.000000 0.000000 -0.604403 -1.704037 0.496842 0.851005 -0.185642 -4.747813 -0.422038 0.908240 -2.586681 38.199943 -29.349012 -54.130878 -136.260020 -88.839888 -135.136276 0.000000 0.000000 0.000000 -0.582745 -1.280418 -0.002090 0.701909 -3.647346 13.687509 2.326409 4.065820 0.822417 23.667553 25.692959 51.878415 -178.678158 81.430123 177.343731 0.000000 0.000000 0.000000 
0.081561 99.214874 -4.030670 0.000000 0.000000 0.000000 -86.853485 -5.256916 -2.270761 6.095832 22.793598 17.351175 -3.174618 5.089992 3.289864 20.547227 29.565089 -28.417116 -5.359986 -0.343530 0.107185 0.000000 0.000000 0.000000 -88.453655 -1.553217 0.086491 10.413041 -21.224693 -14.821958 -0.551437 -1.531246 -5.830687 30.191608 -34.160109 30.341790 -12.874511 1.273009 -0.690473 0.000000 0.000000 0.000000 -87.382722 -6.649488 -4.338040 1.623509 -1.600205 0.996219 -2.989928 -1.394847 0.028006 0.475754 1.611459 -0.399227 0.000000 0.000000 0.000000 -2.579826 -1.840527 0.025499 -11.570312 -2.109818 -1.049815 15.268534 -0.799083 2.945370 0.000000 0.000000 0.000000 -0.837414 -1.726060 0.293645 0.925759 -1.282553 -4.144611 -0.401806 1.954943 -3.137715 39.224882 -30.025887 -52.626259 -140.603897 -89.066022 -139.502051 0.000000 0.000000 0.000000 -0.723803 -1.313649 -0.147043 0.794809 -4.344715 13.664766 2.203644 3.756671 0.614420 18.693106 25.252861 56.770555 -177.958735 83.582500 176.521840 0.000000 0.000000 0.000000 
